ffmpeg version N-55863-g9f38fac053-static https://johnvansickle.com/ffmpeg/  Copyright (c) 2000-2021 the FFmpeg developers
  built with gcc 8 (Debian 8.3.0-6)
  configuration: --enable-gpl --enable-version3 --enable-static --disable-debug --disable-ffplay --disable-indev=sndio --disable-outdev=sndio --cc=gcc --enable-fontconfig --enable-frei0r --enable-gnutls --enable-gmp --enable-libgme --enable-gray --enable-libaom --enable-libfribidi --enable-libass --enable-libvmaf --enable-libfreetype --enable-libmp3lame --enable-libopencore-amrnb --enable-libopencore-amrwb --enable-libopenjpeg --enable-librubberband --enable-libsoxr --enable-libspeex --enable-libsrt --enable-libvorbis --enable-libopus --enable-libtheora --enable-libvidstab --enable-libvo-amrwbenc --enable-libvpx --enable-libwebp --enable-libx264 --enable-libx265 --enable-libxml2 --enable-libdav1d --enable-libxvid --enable-libzvbi --enable-libzimg
  libavutil      56. 64.100 / 56. 64.100
  libavcodec     58.119.100 / 58.119.100
  libavformat    58. 65.101 / 58. 65.101
  libavdevice    58. 11.103 / 58. 11.103
  libavfilter     7.100.100 /  7.100.100
  libswscale      5.  8.100 /  5.  8.100
  libswresample   3.  8.100 /  3.  8.100
  libpostproc    55.  8.100 / 55.  8.100
Input #0, mov,mp4,m4a,3gp,3g2,mj2, from '/home/yiaapc5/public_html/f_data/data_userfiles/user_uploads/3995073565/v/1612724469.mp4':
  Metadata:
    major_brand     : mp42
    minor_version   : 0
    compatible_brands: isommp42
    creation_time   : 2020-04-16T07:54:44.000000Z
  Duration: 00:10:07.04, start: 0.000000, bitrate: 460 kb/s
    Stream #0:0(und): Video: h264 (Main) (avc1 / 0x31637661), yuv420p(tv, bt709), 1280x720 [SAR 1:1 DAR 16:9], 329 kb/s, 23.98 fps, 23.98 tbr, 24k tbn, 47.95 tbc (default)
    Metadata:
      creation_time   : 2020-04-16T07:54:44.000000Z
      handler_name    : ISO Media file produced by Google Inc. Created on: 04/16/2020.
      vendor_id       : [0][0][0][0]
    Stream #0:1(und): Audio: aac (LC) (mp4a / 0x6134706D), 44100 Hz, stereo, fltp, 128 kb/s (default)
    Metadata:
      creation_time   : 2020-04-16T07:54:44.000000Z
      handler_name    : ISO Media file produced by Google Inc. Created on: 04/16/2020.
      vendor_id       : [0][0][0][0]
Codec AVOption rc_eq (Set rate control equation. When computing the expression, besides the standard functions defined in the section 'Expression Evaluation', the following functions are available: bits2qp(bits), qp2bits(qp). Also the following constants are available: iTex pTex tex mv fCode iCount mcVar var isI isP isB avgQP qComp avgIITex avgPITex avgPPTex avgBPTex avgTex.) specified for output file #0 (/home/yiaapc5/public_html/f_data/data_userfiles/user_media/3995073565/v/8f59b6f97a14b75de16184c252e8490e.mob.nomob.mp4) has not been used for any stream. The most likely reason is either wrong type (e.g. a video option with no video streams) or that it is a private option of some encoder which was not actually used for any stream.
Stream mapping:
  Stream #0:0 -> #0:0 (h264 (native) -> h264 (libx264))
  Stream #0:1 -> #0:1 (aac (native) -> aac (native))
Press [q] to stop, [?] for help
[libx264 @ 0x6778b80] Application has requested 32 threads. Using a thread count greater than 16 is not recommended.
[libx264 @ 0x6778b80] using SAR=136/135
[libx264 @ 0x6778b80] frame MB size (30x17) > level limit (396)
[libx264 @ 0x6778b80] VBV bitrate (10000) > level limit (768)
[libx264 @ 0x6778b80] VBV buffer (10000) > level limit (2000)
[libx264 @ 0x6778b80] MB rate (12227) > level limit (11880)
[libx264 @ 0x6778b80] using cpu capabilities: MMX2 SSE2Fast SSSE3 SSE4.2 AVX
[libx264 @ 0x6778b80] profile Constrained Baseline, level 1.3, 4:2:0, 8-bit
[libx264 @ 0x6778b80] 264 - core 161 r3040 35417dc - H.264/MPEG-4 AVC codec - Copyleft 2003-2021 - http://www.videolan.org/x264.html - options: cabac=0 ref=1 deblock=1:0:0 analyse=0x1:0 me=hex subme=1 psy=1 psy_rd=1.00:0.00 mixed_ref=0 me_range=16 chroma_me=1 trellis=0 8x8dct=0 cqm=0 deadzone=21,11 fast_pskip=1 chroma_qp_offset=0 threads=32 lookahead_threads=2 sliced_threads=0 nr=0 decimate=1 interlaced=0 bluray_compat=0 constrained_intra=0 bframes=0 weightp=0 keyint=300 keyint_min=25 scenecut=40 intra_refresh=0 rc_lookahead=30 rc=abr mbtree=1 bitrate=461 ratetol=1.0 qcomp=0.60 qpmin=10 qpmax=51 qpstep=4 vbv_maxrate=10000 vbv_bufsize=10000 nal_hrd=none filler=0 ip_ratio=1.41 aq=1:1.00
Output #0, mp4, to '/home/yiaapc5/public_html/f_data/data_userfiles/user_media/3995073565/v/8f59b6f97a14b75de16184c252e8490e.mob.nomob.mp4':
  Metadata:
    major_brand     : mp42
    minor_version   : 0
    compatible_brands: isommp42
    encoder         : Lavf58.65.101
    Stream #0:0(und): Video: h264 (avc1 / 0x31637661), yuv420p(tv, bt709, progressive), 480x272 [SAR 136:135 DAR 16:9], q=2-31, 461 kb/s, 23.98 fps, 24k tbn (default)
    Metadata:
      creation_time   : 2020-04-16T07:54:44.000000Z
      handler_name    : ISO Media file produced by Google Inc. Created on: 04/16/2020.
      vendor_id       : [0][0][0][0]
      encoder         : Lavc58.119.100 libx264
    Side data:
      cpb: bitrate max/min/avg: 10000000/0/461000 buffer size: 10000000 vbv_delay: N/A
    Stream #0:1(und): Audio: aac (LC) (mp4a / 0x6134706D), 44100 Hz, stereo, fltp, 128 kb/s (default)
    Metadata:
      creation_time   : 2020-04-16T07:54:44.000000Z
      handler_name    : ISO Media file produced by Google Inc. Created on: 04/16/2020.
      vendor_id       : [0][0][0][0]
      encoder         : Lavc58.119.100 aac
frame=    1 fps=0.0 q=0.0 size=       0kB time=00:00:00.41 bitrate=   0.9kbits/s speed= 9.6x    frame=  187 fps=0.0 q=27.0 size=     256kB time=00:00:08.24 bitrate= 254.5kbits/s speed=15.1x    frame=  380 fps=364 q=30.0 size=    1024kB time=00:00:16.39 bitrate= 511.7kbits/s speed=15.7x    frame=  581 fps=376 q=23.0 size=    1280kB time=00:00:24.72 bitrate= 424.0kbits/s speed=  16x    frame=  789 fps=386 q=22.0 size=    2048kB time=00:00:33.43 bitrate= 501.8kbits/s speed=16.3x    frame=  987 fps=388 q=24.0 size=    2560kB time=00:00:41.67 bitrate= 503.2kbits/s speed=16.4x    frame= 1200 fps=394 q=23.0 size=    3328kB time=00:00:50.43 bitrate= 540.6kbits/s speed=16.5x    frame= 1413 fps=398 q=28.0 size=    4352kB time=00:00:59.18 bitrate= 602.4kbits/s speed=16.7x    frame= 1623 fps=401 q=27.0 size=    4864kB time=00:01:08.17 bitrate= 584.5kbits/s speed=16.8x    frame= 1837 fps=404 q=27.0 size=    5376kB time=00:01:17.09 bitrate= 571.3kbits/s speed=16.9x    frame= 2052 fps=406 q=28.0 size=    6144kB time=00:01:25.79 bitrate= 586.6kbits/s speed=  17x    frame= 2261 fps=407 q=27.0 size=    6656kB time=00:01:34.76 bitrate= 575.4kbits/s speed=17.1x    frame= 2473 fps=408 q=28.0 size=    7424kB time=00:01:43.67 bitrate= 586.6kbits/s speed=17.1x    frame= 2689 fps=410 q=27.0 size=    7936kB time=00:01:52.38 bitrate= 578.5kbits/s speed=17.1x    frame= 2899 fps=411 q=28.0 size=    8704kB time=00:02:01.41 bitrate= 587.3kbits/s speed=17.2x    frame= 3112 fps=412 q=28.0 size=    9216kB time=00:02:10.26 bitrate= 579.6kbits/s speed=17.2x    frame= 3325 fps=413 q=28.0 size=    9984kB time=00:02:18.97 bitrate= 588.5kbits/s speed=17.2x    frame= 3537 fps=413 q=28.0 size=   10752kB time=00:02:27.70 bitrate= 596.3kbits/s speed=17.3x    frame= 3746 fps=414 q=27.0 size=   11008kB time=00:02:36.82 bitrate= 575.0kbits/s speed=17.3x    frame= 3958 fps=414 q=27.0 size=   11776kB time=00:02:45.55 bitrate= 582.7kbits/s speed=17.3x    frame= 4172 fps=415 q=27.0 size=   12288kB time=00:02:54.28 bitrate= 577.6kbits/s speed=17.3x    frame= 4369 fps=414 q=26.0 size=   12800kB time=00:03:02.60 bitrate= 574.2kbits/s speed=17.3x    frame= 4558 fps=412 q=27.0 size=   13568kB time=00:03:10.40 bitrate= 583.8kbits/s speed=17.2x    frame= 4745 fps=410 q=28.0 size=   14336kB time=00:03:18.18 bitrate= 592.6kbits/s speed=17.1x    frame= 4927 fps=408 q=28.0 size=   14592kB time=00:03:25.96 bitrate= 580.4kbits/s speed=17.1x    frame= 5113 fps=407 q=27.0 size=   15104kB time=00:03:33.73 bitrate= 578.9kbits/s speed=  17x    frame= 5299 fps=406 q=27.0 size=   15616kB time=00:03:41.56 bitrate= 577.4kbits/s speed=  17x    frame= 5486 fps=404 q=28.0 size=   16384kB time=00:03:49.41 bitrate= 585.0kbits/s speed=16.9x    frame= 5682 fps=404 q=28.0 size=   16896kB time=00:03:57.21 bitrate= 583.5kbits/s speed=16.9x    frame= 5869 fps=403 q=27.0 size=   17408kB time=00:04:05.31 bitrate= 581.3kbits/s speed=16.8x    frame= 6058 fps=402 q=25.0 size=   18176kB time=00:04:13.21 bitrate= 588.0kbits/s speed=16.8x    frame= 6247 fps=401 q=29.0 size=   18944kB time=00:04:20.99 bitrate= 594.6kbits/s speed=16.8x    frame= 6439 fps=401 q=27.0 size=   19200kB time=00:04:28.81 bitrate= 585.1kbits/s speed=16.7x    frame= 6628 fps=400 q=27.0 size=   19456kB time=00:04:36.82 bitrate= 575.8kbits/s speed=16.7x    frame= 6819 fps=399 q=27.0 size=   20224kB time=00:04:44.90 bitrate= 581.5kbits/s speed=16.7x    frame= 7013 fps=399 q=27.0 size=   20736kB time=00:04:52.68 bitrate= 580.4kbits/s speed=16.7x    frame= 7200 fps=398 q=27.0 size=   21248kB time=00:05:00.48 bitrate= 579.3kbits/s speed=16.6x    frame= 7387 fps=398 q=27.0 size=   21760kB time=00:05:08.26 bitrate= 578.3kbits/s speed=16.6x    frame= 7564 fps=396 q=27.0 size=   22528kB time=00:05:16.09 bitrate= 583.8kbits/s speed=16.6x    frame= 7755 fps=396 q=27.0 size=   23040kB time=00:05:23.91 bitrate= 582.7kbits/s speed=16.5x    frame= 7945 fps=396 q=26.0 size=   23552kB time=00:05:31.69 bitrate= 581.7kbits/s speed=16.5x    frame= 8126 fps=395 q=27.0 size=   24320kB time=00:05:39.47 bitrate= 586.9kbits/s speed=16.5x    frame= 8303 fps=394 q=27.0 size=   24832kB time=00:05:46.79 bitrate= 586.6kbits/s speed=16.4x    frame= 8483 fps=393 q=26.0 size=   25088kB time=00:05:54.17 bitrate= 580.3kbits/s speed=16.4x    frame= 8665 fps=392 q=26.0 size=   25600kB time=00:06:01.99 bitrate= 579.3kbits/s speed=16.4x    frame= 8852 fps=392 q=26.0 size=   26112kB time=00:06:09.77 bitrate= 578.5kbits/s speed=16.4x    frame= 9039 fps=392 q=25.0 size=   26368kB time=00:06:17.55 bitrate= 572.1kbits/s speed=16.4x    frame= 9233 fps=391 q=25.0 size=   27136kB time=00:06:25.33 bitrate= 576.9kbits/s speed=16.3x    frame= 9413 fps=391 q=24.0 size=   27392kB time=00:06:33.11 bitrate= 570.8kbits/s speed=16.3x    frame= 9600 fps=390 q=23.0 size=   27904kB time=00:06:40.98 bitrate= 570.1kbits/s speed=16.3x    frame= 9793 fps=390 q=23.0 size=   28416kB time=00:06:48.78 bitrate= 569.5kbits/s speed=16.3x    frame= 9983 fps=390 q=23.0 size=   28928kB time=00:06:56.89 bitrate= 568.4kbits/s speed=16.3x    frame=10177 fps=390 q=24.0 size=   29696kB time=00:07:04.80 bitrate= 572.7kbits/s speed=16.3x    frame=10367 fps=390 q=23.0 size=   30208kB time=00:07:12.58 bitrate= 572.1kbits/s speed=16.3x    frame=10555 fps=390 q=24.0 size=   30720kB time=00:07:20.78 bitrate= 570.9kbits/s speed=16.3x    frame=10749 fps=390 q=25.0 size=   31744kB time=00:07:28.70 bitrate= 579.6kbits/s speed=16.3x    frame=10937 fps=389 q=25.0 size=   32256kB time=00:07:36.50 bitrate= 578.8kbits/s speed=16.2x    frame=11127 fps=389 q=24.0 size=   32768kB time=00:07:44.46 bitrate= 577.9kbits/s speed=16.2x    frame=11318 fps=389 q=25.0 size=   33280kB time=00:07:52.52 bitrate= 577.0kbits/s speed=16.2x    frame=11509 fps=389 q=25.0 size=   33792kB time=00:08:00.30 bitrate= 576.4kbits/s speed=16.2x    frame=11696 fps=389 q=25.0 size=   34560kB time=00:08:08.08 bitrate= 580.1kbits/s speed=16.2x    frame=11882 fps=388 q=24.0 size=   34816kB time=00:08:15.95 bitrate= 575.1kbits/s speed=16.2x    frame=12073 fps=388 q=25.0 size=   35584kB time=00:08:23.98 bitrate= 578.4kbits/s speed=16.2x    frame=12270 fps=388 q=24.0 size=   36096kB time=00:08:32.00 bitrate= 577.5kbits/s speed=16.2x    frame=12458 fps=388 q=24.0 size=   36608kB time=00:08:40.05 bitrate= 576.7kbits/s speed=16.2x    frame=12651 fps=388 q=25.0 size=   37376kB time=00:08:48.02 bitrate= 579.9kbits/s speed=16.2x    frame=12843 fps=388 q=25.0 size=   38144kB time=00:08:55.82 bitrate= 583.2kbits/s speed=16.2x    frame=13035 fps=388 q=25.0 size=   38400kB time=00:09:04.11 bitrate= 578.1kbits/s speed=16.2x    frame=13228 fps=388 q=25.0 size=   39168kB time=00:09:11.96 bitrate= 581.3kbits/s speed=16.2x    frame=13424 fps=388 q=26.0 size=   39936kB time=00:09:20.18 bitrate= 584.0kbits/s speed=16.2x    frame=13620 fps=388 q=25.0 size=   40448kB time=00:09:28.42 bitrate= 582.9kbits/s speed=16.2x    frame=13814 fps=388 q=25.0 size=   40960kB time=00:09:36.66 bitrate= 581.9kbits/s speed=16.2x    frame=14009 fps=388 q=24.0 size=   41216kB time=00:09:44.79 bitrate= 577.4kbits/s speed=16.2x    frame=14206 fps=388 q=24.0 size=   41728kB time=00:09:52.68 bitrate= 576.8kbits/s speed=16.2x    frame=14396 fps=388 q=23.0 size=   42240kB time=00:10:01.00 bitrate= 575.8kbits/s speed=16.2x    frame=14554 fps=388 q=-1.0 Lsize=   43264kB time=00:10:07.01 bitrate= 583.9kbits/s speed=16.2x    
video:33386kB audio:9534kB subtitle:0kB other streams:0kB global headers:0kB muxing overhead: 0.802003%
[libx264 @ 0x6778b80] frame I:167   Avg QP:17.36  size: 15675
[libx264 @ 0x6778b80] frame P:14387 Avg QP:20.52  size:  2194
[libx264 @ 0x6778b80] mb I  I16..4: 20.7%  0.0% 79.3%
[libx264 @ 0x6778b80] mb P  I16..4:  3.1%  0.0%  0.0%  P16..4: 42.7%  0.0%  0.0%  0.0%  0.0%    skip:54.2%
[libx264 @ 0x6778b80] final ratefactor: 20.30
[libx264 @ 0x6778b80] coded y,uvDC,uvAC intra: 45.5% 57.4% 37.0% inter: 17.4% 10.2% 1.9%
[libx264 @ 0x6778b80] i16 v,h,dc,p: 50% 29% 10% 12%
[libx264 @ 0x6778b80] i4 v,h,dc,ddl,ddr,vr,hd,vl,hu: 25% 24%  9%  8%  7%  6%  7%  6%  8%
[libx264 @ 0x6778b80] i8c dc,h,v,p: 43% 25% 23% 10%
[libx264 @ 0x6778b80] kb/s:450.54
[aac @ 0x6799a40] Qavg: 203.424
